<svg width="26" height="26" viewBox="0 0 26 26" fill="none" xmlns="http://www.w3.org/2000/svg">
<path d="M2.33333 12.8333C2.33333 7.03434 7.03434 2.33333 12.8333 2.33333C18.6323 2.33333 23.3333 7.03434 23.3333 12.8333C23.3333 18.6323 18.6323 23.3333 12.8333 23.3333C7.03434 23.3333 2.33333 18.6323 2.33333 12.8333ZM12.8333 0C5.74568 0 0 5.74568 0 12.8333C0 19.921 5.74568 25.6667 12.8333 25.6667C19.921 25.6667 25.6667 19.921 25.6667 12.8333C25.6667 5.74568 19.921 0 12.8333 0ZM14 8.16667C14 8.811 13.4777 9.33333 12.8333 9.33333C12.189 9.33333 11.6667 8.811 11.6667 8.16667C11.6667 7.52233 12.189 7 12.8333 7C13.4777 7 14 7.52233 14 8.16667ZM12.8333 11.6667C13.4777 11.6667 14 12.189 14 12.8333V17.5C14 18.1443 13.4777 18.6667 12.8333 18.6667C12.189 18.6667 11.6667 18.1443 11.6667 17.5V12.8333C11.6667 12.189 12.189 11.6667 12.8333 11.6667Z" fill="black"/>
</svg>
