<svg width="15" height="15" viewBox="0 0 15 15" fill="none" xmlns="http://www.w3.org/2000/svg">
<path fill-rule="evenodd" clip-rule="evenodd" d="M11.8808 11.8799C9.84335 13.9176 6.82639 14.3578 4.35749 13.216C3.99302 13.0693 3.6942 12.9507 3.41013 12.9507C2.61887 12.9554 1.63399 13.7226 1.12212 13.2113C0.610247 12.6994 1.37805 11.7137 1.37805 10.9177C1.37805 10.6336 1.26416 10.3401 1.11743 9.97492C-0.0249016 7.50642 0.41595 4.48846 2.45338 2.45147C5.05428 -0.150379 9.27989 -0.150379 11.8808 2.4508C14.4864 5.05667 14.4817 9.27873 11.8808 11.8799Z" stroke="#F7FAE8" stroke-linecap="round" stroke-linejoin="round"/>
<path d="M9.79286 7.442H9.79886" stroke="#F7FAE8" stroke-linecap="round" stroke-linejoin="round"/>
<path d="M7.12013 7.442H7.12613" stroke="#F7FAE8" stroke-linecap="round" stroke-linejoin="round"/>
<path d="M4.44752 7.442H4.45352" stroke="#F7FAE8" stroke-linecap="round" stroke-linejoin="round"/>
</svg>
