<svg width="26" height="26" viewBox="0 0 26 26" fill="none" xmlns="http://www.w3.org/2000/svg">
<path d="M0.75 12.8333C0.75 19.5067 6.15989 24.9167 12.8333 24.9167C19.5067 24.9167 24.9167 19.5067 24.9167 12.8333C24.9167 6.15989 19.5067 0.75 12.8333 0.75C6.15989 0.75 0.75 6.15989 0.75 12.8333Z" stroke="#628473" stroke-width="1.5" stroke-linecap="round" stroke-linejoin="round"/>
<path d="M14.041 0.80957C14.041 0.80957 17.666 5.58324 17.666 12.8332C17.666 20.0832 14.041 24.8569 14.041 24.8569" stroke="#628473" stroke-width="1.5" stroke-linecap="round" stroke-linejoin="round"/>
<path d="M11.625 24.8569C11.625 24.8569 8 20.0832 8 12.8332C8 5.58324 11.625 0.80957 11.625 0.80957" stroke="#628473" stroke-width="1.5" stroke-linecap="round" stroke-linejoin="round"/>
<path d="M1.51074 17.0625H24.1558" stroke="#628473" stroke-width="1.5" stroke-linecap="round" stroke-linejoin="round"/>
<path d="M1.51074 8.60449H24.1558" stroke="#628473" stroke-width="1.5" stroke-linecap="round" stroke-linejoin="round"/>
</svg>
