<svg width="25" height="20" viewBox="0 0 25 20" fill="none" xmlns="http://www.w3.org/2000/svg">
<path fill-rule="evenodd" clip-rule="evenodd" d="M20.5417 0C22.5437 0 24.1667 1.62297 24.1667 3.625V15.7083C24.1667 17.7104 22.5437 19.3333 20.5417 19.3333H3.625C1.62297 19.3333 0 17.7104 0 15.7083V3.625C0 1.62297 1.62297 0 3.625 0H20.5417ZM21.75 4.02133L12.879 11.7844C12.4614 12.1498 11.855 12.1802 11.406 11.8757L11.2876 11.7844L2.41667 4.02254V15.7083C2.41667 16.3757 2.95766 16.9167 3.625 16.9167H20.5417C21.209 16.9167 21.75 16.3757 21.75 15.7083V4.02133ZM19.9133 2.41667H4.25092L12.0833 9.2694L19.9133 2.41667Z" fill="#628473"/>
</svg>
