<svg width="25" height="24" viewBox="0 0 25 24" fill="none" xmlns="http://www.w3.org/2000/svg">
<path d="M18.0833 0C21.6277 0 24.5 3.11869 24.5 7.48485C24.5 16.2172 15.75 21.2071 12.8333 23.0783C10.5268 21.5988 4.56983 18.167 2.1805 12.476L0 12.4747V9.9798H1.41167C1.253 9.1864 1.16667 8.35559 1.16667 7.48485C1.16667 3.11869 4.08333 0 7.58333 0C9.75333 0 11.6667 1.24747 12.8333 2.49495C14 1.24747 15.9133 0 18.0833 0ZM18.0833 2.49495C16.828 2.49495 15.47 3.20601 14.483 4.25888L12.8333 6.02281L11.1837 4.25888C10.1967 3.20601 8.83867 2.49495 7.58333 2.49495C5.32 2.49495 3.5 4.56077 3.5 7.48485C3.5 8.33937 3.605 9.17143 3.8115 9.9798H6.33967L8.75 5.6835L12.25 11.9209L13.3397 9.9798H18.6667V12.4747H14.6603L12.25 16.7711L8.75 10.5337L7.66033 12.4747H4.79267C5.71433 14.1888 7.1085 15.803 8.91917 17.3436C9.78833 18.0821 10.7158 18.772 11.7437 19.4643C12.0925 19.7001 12.4378 19.9259 12.8333 20.1779C13.2288 19.9259 13.5742 19.7001 13.923 19.4656C14.9508 18.772 15.8783 18.0821 16.7463 17.3436C20.2242 14.3871 22.1667 11.1562 22.1667 7.48485C22.1667 4.54081 20.3735 2.49495 18.0833 2.49495Z" fill="#21393B"/>
</svg>
