<svg width="28" height="28" viewBox="0 0 28 28" fill="none" xmlns="http://www.w3.org/2000/svg">
<g clip-path="url(#clip0_678_5325)">
<path d="M14.875 8.80957V10.7346L16.5428 9.77207L17.4178 11.2893L15.75 12.2501L17.4178 13.2126L16.5428 14.7281L14.875 13.7656V15.6906H13.125V13.7656L11.4572 14.7281L10.5822 13.2126L12.25 12.2501L10.5822 11.2876L11.4572 9.77207L13.125 10.7346V8.80957H14.875ZM23.1875 15.7501C23.0715 15.7501 22.9602 15.7962 22.8781 15.8782C22.7961 15.9603 22.75 16.0715 22.75 16.1876V17.0626C22.75 17.3041 22.946 17.5001 23.1875 17.5001H24.0625C24.1785 17.5001 24.2898 17.454 24.3719 17.3719C24.4539 17.2899 24.5 17.1786 24.5 17.0626V16.1876C24.5 16.0715 24.4539 15.9603 24.3719 15.8782C24.2898 15.7962 24.1785 15.7501 24.0625 15.7501H23.1875ZM22.75 19.6876C22.75 19.5715 22.7961 19.4603 22.8781 19.3782C22.9602 19.2962 23.0715 19.2501 23.1875 19.2501H24.0625C24.1785 19.2501 24.2898 19.2962 24.3719 19.3782C24.4539 19.4603 24.5 19.5715 24.5 19.6876V20.5626C24.5 20.6786 24.4539 20.7899 24.3719 20.8719C24.2898 20.954 24.1785 21.0001 24.0625 21.0001H23.1875C23.0715 21.0001 22.9602 20.954 22.8781 20.8719C22.7961 20.7899 22.75 20.6786 22.75 20.5626V19.6876ZM23.1875 22.7501C23.0715 22.7501 22.9602 22.7962 22.8781 22.8782C22.7961 22.9603 22.75 23.0715 22.75 23.1876V24.0626C22.75 24.3041 22.946 24.5001 23.1875 24.5001H24.0625C24.1785 24.5001 24.2898 24.454 24.3719 24.3719C24.4539 24.2899 24.5 24.1786 24.5 24.0626V23.1876C24.5 23.0715 24.4539 22.9603 24.3719 22.8782C24.2898 22.7962 24.1785 22.7501 24.0625 22.7501H23.1875ZM3.9375 15.7501C3.82147 15.7501 3.71019 15.7962 3.62814 15.8782C3.54609 15.9603 3.5 16.0715 3.5 16.1876V17.0626C3.5 17.3041 3.696 17.5001 3.9375 17.5001H4.8125C4.92853 17.5001 5.03981 17.454 5.12186 17.3719C5.20391 17.2899 5.25 17.1786 5.25 17.0626V16.1876C5.25 16.0715 5.20391 15.9603 5.12186 15.8782C5.03981 15.7962 4.92853 15.7501 4.8125 15.7501H3.9375ZM3.9375 19.2501C3.82147 19.2501 3.71019 19.2962 3.62814 19.3782C3.54609 19.4603 3.5 19.5715 3.5 19.6876V20.5626C3.5 20.8041 3.696 21.0001 3.9375 21.0001H4.8125C4.92853 21.0001 5.03981 20.954 5.12186 20.8719C5.20391 20.7899 5.25 20.6786 5.25 20.5626V19.6876C5.25 19.5715 5.20391 19.4603 5.12186 19.3782C5.03981 19.2962 4.92853 19.2501 4.8125 19.2501H3.9375ZM3.5 23.1876C3.5 23.0715 3.54609 22.9603 3.62814 22.8782C3.71019 22.7962 3.82147 22.7501 3.9375 22.7501H4.8125C4.92853 22.7501 5.03981 22.7962 5.12186 22.8782C5.20391 22.9603 5.25 23.0715 5.25 23.1876V24.0626C5.25 24.1786 5.20391 24.2899 5.12186 24.3719C5.03981 24.454 4.92853 24.5001 4.8125 24.5001H3.9375C3.82147 24.5001 3.71019 24.454 3.62814 24.3719C3.54609 24.2899 3.5 24.1786 3.5 24.0626V23.1876Z" fill="#21272A"/>
<path d="M8.75 1.75C8.75 1.28587 8.93437 0.840752 9.26256 0.512563C9.59075 0.184374 10.0359 0 10.5 0L17.5 0C17.9641 0 18.4092 0.184374 18.7374 0.512563C19.0656 0.840752 19.25 1.28587 19.25 1.75V3.5C19.7141 3.5 20.1592 3.68437 20.4874 4.01256C20.8156 4.34075 21 4.78587 21 5.25V12.25H26.25C26.7141 12.25 27.1592 12.4344 27.4874 12.7626C27.8156 13.0908 28 13.5359 28 14V26.25C28 26.7141 27.8156 27.1592 27.4874 27.4874C27.1592 27.8156 26.7141 28 26.25 28H1.75C1.28587 28 0.840752 27.8156 0.512563 27.4874C0.184374 27.1592 0 26.7141 0 26.25V14C0 13.5359 0.184374 13.0908 0.512563 12.7626C0.840752 12.4344 1.28587 12.25 1.75 12.25H7V5.25C7 4.78587 7.18437 4.34075 7.51256 4.01256C7.84075 3.68437 8.28587 3.5 8.75 3.5V1.75ZM12.25 26.25H15.75V21H12.25V26.25ZM17.5 26.25H19.25V5.25H8.75V26.25H10.5V21C10.5 20.5359 10.6844 20.0908 11.0126 19.7626C11.3408 19.4344 11.7859 19.25 12.25 19.25H15.75C16.2141 19.25 16.6592 19.4344 16.9874 19.7626C17.3156 20.0908 17.5 20.5359 17.5 21V26.25ZM17.5 1.75H10.5V3.5H17.5V1.75ZM21 14V26.25H26.25V14H21ZM7 26.25V14H1.75V26.25H7Z" fill="#21272A"/>
</g>
<defs>
<clipPath id="clip0_678_5325">
<rect width="28" height="28" fill="white"/>
</clipPath>
</defs>
</svg>
