<svg width="23" height="23" viewBox="0 0 23 23" fill="none" xmlns="http://www.w3.org/2000/svg">
<circle cx="11.5" cy="11.5" r="11" stroke="#222222"/>
<path d="M12 0.5C12.3425 0.5 12.7409 0.698846 13.1709 1.22168C13.5979 1.74102 14.0052 2.52238 14.3564 3.53223C15.0575 5.54776 15.5 8.36498 15.5 11.5C15.5 14.635 15.0575 17.4522 14.3564 19.4678C14.0052 20.4776 13.5979 21.259 13.1709 21.7783C12.7409 22.3012 12.3425 22.5 12 22.5C11.6575 22.5 11.2591 22.3012 10.8291 21.7783C10.4021 21.259 9.99482 20.4776 9.64355 19.4678C8.9425 17.4522 8.5 14.635 8.5 11.5C8.5 8.36498 8.9425 5.54776 9.64355 3.53223C9.99482 2.52238 10.4021 1.74102 10.8291 1.22168C11.2591 0.698846 11.6575 0.5 12 0.5Z" stroke="#222222"/>
<path d="M1 12L22 12" stroke="#33363F" stroke-linecap="round"/>
</svg>
