<svg width="28" height="28" viewBox="0 0 28 28" fill="none" xmlns="http://www.w3.org/2000/svg">
<path d="M18.2584 24.9783C17.7567 24.9783 17.255 24.8733 16.8467 24.6749L10.7217 21.6066C10.3717 21.4316 9.68336 21.4433 9.34503 21.6416L6.59169 23.2166C5.40169 23.8933 4.17669 23.9866 3.25503 23.4383C2.32169 22.9016 1.79669 21.8049 1.79669 20.4283V9.08827C1.79669 8.0266 2.49669 6.82494 3.41836 6.29994L8.47003 3.4066C9.32169 2.9166 10.6167 2.8816 11.4917 3.32494L17.6167 6.39327C17.9667 6.56827 18.6434 6.54494 18.9934 6.35827L21.735 4.79494C22.925 4.11827 24.15 4.02494 25.0717 4.57327C26.005 5.10994 26.53 6.2066 26.53 7.58327V18.9349C26.53 19.9966 25.83 21.1983 24.9084 21.7233L19.8567 24.6166C19.4134 24.8499 18.83 24.9783 18.2584 24.9783ZM10.08 19.7399C10.5817 19.7399 11.0834 19.8449 11.4917 20.0433L17.6167 23.1116C17.9667 23.2866 18.6434 23.2633 18.9934 23.0766L24.045 20.1833C24.4184 19.9733 24.78 19.3433 24.78 18.9233V7.5716C24.78 6.8366 24.57 6.28827 24.185 6.07827C23.8117 5.86827 23.2284 5.94994 22.5984 6.3116L19.8567 7.87494C19.005 8.36494 17.71 8.39994 16.835 7.9566L10.71 4.88827C10.36 4.71327 9.68336 4.7366 9.33336 4.92327L4.28169 7.8166C3.90836 8.0266 3.54669 8.6566 3.54669 9.08827V20.4399C3.54669 21.1749 3.75669 21.7233 4.13003 21.9333C4.50336 22.1549 5.08669 22.0616 5.72836 21.6999L8.47003 20.1366C8.92503 19.8683 9.50836 19.7399 10.08 19.7399Z" fill="#292D32"/>
<path d="M9.98669 20.7084C9.50836 20.7084 9.11169 20.3117 9.11169 19.8334V4.66675C9.11169 4.18841 9.50836 3.79175 9.98669 3.79175C10.465 3.79175 10.8617 4.18841 10.8617 4.66675V19.8334C10.8617 20.3117 10.465 20.7084 9.98669 20.7084Z" fill="#292D32"/>
<path d="M18.3517 24.2084C17.8734 24.2084 17.4767 23.8117 17.4767 23.3334V7.72339C17.4767 7.24506 17.8734 6.84839 18.3517 6.84839C18.83 6.84839 19.2267 7.24506 19.2267 7.72339V23.3334C19.2267 23.8117 18.83 24.2084 18.3517 24.2084Z" fill="#292D32"/>
</svg>
