<svg width="20" height="20" viewBox="0 0 20 20" fill="none" xmlns="http://www.w3.org/2000/svg">
<path d="M9.66667 2.29583C11.0683 2.29583 12.2042 3.43167 12.2042 4.83333C12.2042 6.235 11.0683 7.37083 9.66667 7.37083C8.265 7.37083 7.12917 6.235 7.12917 4.83333C7.12917 3.43167 8.265 2.29583 9.66667 2.29583ZM9.66667 13.1708C13.2615 13.1708 17.0375 14.929 17.0375 15.7083V17.0375H2.29583V15.7083C2.29583 14.929 6.07188 13.1708 9.66667 13.1708ZM9.66667 0C6.99625 0 4.83333 2.16292 4.83333 4.83333C4.83333 7.49771 6.99625 9.66667 9.66667 9.66667C12.3371 9.66667 14.5 7.49771 14.5 4.83333C14.5 2.16292 12.3371 0 9.66667 0ZM9.66667 10.875C6.44646 10.875 0 12.4881 0 15.7083V19.3333H19.3333V15.7083C19.3333 12.4881 12.8869 10.875 9.66667 10.875Z" fill="#628473"/>
</svg>
