<svg width="20" height="25" viewBox="0 0 20 25" fill="none" xmlns="http://www.w3.org/2000/svg">
<path fill-rule="evenodd" clip-rule="evenodd" d="M9.66667 0C12.9156 0 15.5655 2.56445 15.7028 5.77959L15.7083 6.04167V9.66667C17.7104 9.66667 19.3333 11.2896 19.3333 13.2917V20.5417C19.3333 22.5437 17.7104 24.1667 15.7083 24.1667H3.625C1.62297 24.1667 0 22.5437 0 20.5417V13.2917C0 11.2896 1.62297 9.66667 3.625 9.66667V6.04167C3.625 2.70495 6.32995 0 9.66667 0ZM15.7083 12.0833H3.625C2.95766 12.0833 2.41667 12.6243 2.41667 13.2917V20.5417C2.41667 21.209 2.95766 21.75 3.625 21.75H15.7083C16.3757 21.75 16.9167 21.209 16.9167 20.5417V13.2917C16.9167 12.6243 16.3757 12.0833 15.7083 12.0833ZM9.87966 2.42282L9.66667 2.41667C7.73614 2.41667 6.15808 3.92578 6.04782 5.82867L6.04167 6.04167V9.66667H13.2917V6.04167C13.2917 4.11114 11.7826 2.53308 9.87966 2.42282L9.66667 2.41667L9.87966 2.42282Z" fill="#628473"/>
</svg>
