<svg width="25" height="25" viewBox="0 0 25 25" fill="none" xmlns="http://www.w3.org/2000/svg">
<path d="M2.90765 2.61177L4.07648 1.44295C4.467 1.05242 5.10017 1.05242 5.49069 1.44295L9.63203 5.58429C10.0226 5.97481 10.0226 6.60798 9.63203 6.9985L7.93878 8.69175C7.71339 8.91714 7.65751 9.26148 7.80006 9.54658C9.4482 12.8429 12.121 15.5157 15.4173 17.1638C15.7024 17.3064 16.0467 17.2505 16.2721 17.0251L17.9654 15.3318C18.3559 14.9413 18.9891 14.9413 19.3796 15.3318L23.5209 19.4732C23.9114 19.8637 23.9114 20.4969 23.5209 20.8874L22.3521 22.0562C20.2407 24.1676 16.8982 24.4051 14.5095 22.6136L10.1899 19.3739C8.4464 18.0663 6.89758 16.5175 5.58993 14.7739L2.35029 10.4544C0.55875 8.06569 0.7963 4.72312 2.90765 2.61177Z" stroke="#628473" stroke-width="2.3"/>
</svg>
