<svg width="39" height="44" viewBox="0 0 39 44" fill="none" xmlns="http://www.w3.org/2000/svg">
<path d="M19.32 43.025C18.84 43.025 18.36 42.9651 17.9 42.8251C7.52002 39.9651 0 30.265 0 19.745V10.965C0 8.72496 1.62001 6.30506 3.70001 5.44506L14.84 0.885C17.74 -0.295 20.92 -0.295 23.8 0.885L34.94 5.44506C37.02 6.30506 38.64 8.72496 38.64 10.965V19.745C38.64 30.245 31.1 39.9451 20.74 42.8251C20.28 42.9651 19.8 43.025 19.32 43.025ZM19.32 3.02501C18.18 3.02501 17.06 3.24505 15.98 3.68505L4.84003 8.24499C3.88003 8.64499 3 9.94498 3 10.985V19.765C3 28.945 9.60001 37.4251 18.7 39.9451C19.1 40.0651 19.54 40.0651 19.94 39.9451C29.04 37.4251 35.64 28.945 35.64 19.765V10.985C35.64 9.94498 34.76 8.64499 33.8 8.24499L22.66 3.68505C21.58 3.24505 20.46 3.02501 19.32 3.02501Z" fill="white"/>
</svg>
