<svg width="14" height="14" viewBox="0 0 14 14" fill="none" xmlns="http://www.w3.org/2000/svg">
<path fill-rule="evenodd" clip-rule="evenodd" d="M5.25133 8.8042C2.68867 8.8042 0.5 9.19153 0.5 10.7435C0.5 12.2955 2.67533 12.6969 5.25133 12.6969C7.81467 12.6969 10.0027 12.3089 10.0027 10.7575C10.0027 9.2062 7.828 8.8042 5.25133 8.8042Z" stroke="#21393B" stroke-linecap="round" stroke-linejoin="round"/>
<path fill-rule="evenodd" clip-rule="evenodd" d="M5.25135 6.59067C6.93335 6.59067 8.29668 5.22733 8.29668 3.54533C8.29668 1.86333 6.93335 0.5 5.25135 0.5C3.57002 0.5 2.20668 1.86333 2.20668 3.54533C2.20068 5.22133 3.55402 6.58467 5.23068 6.59067H5.25135Z" stroke="#21393B" stroke-linecap="round" stroke-linejoin="round"/>
<path d="M11.4694 4.44613V7.11947" stroke="#21393B" stroke-linecap="round" stroke-linejoin="round"/>
<path d="M12.8334 5.78274H10.1067" stroke="#21393B" stroke-linecap="round" stroke-linejoin="round"/>
</svg>
