<svg width="24" height="24" viewBox="0 0 24 24" fill="none" xmlns="http://www.w3.org/2000/svg">
<path d="M2.25743 1.96162L3.42625 0.7928C3.81678 0.402276 4.44994 0.402277 4.84047 0.792801L8.98181 4.93414C9.37233 5.32467 9.37233 5.95783 8.98181 6.34836L7.28856 8.0416C7.06317 8.267 7.00729 8.61133 7.14984 8.89643C8.79798 12.1927 11.4708 14.8655 14.7671 16.5137C15.0522 16.6562 15.3965 16.6003 15.6219 16.3749L17.3151 14.6817C17.7057 14.2912 18.3388 14.2912 18.7294 14.6817L22.8707 18.823C23.2612 19.2136 23.2612 19.8467 22.8707 20.2372L21.7019 21.4061C19.5905 23.5174 16.248 23.755 13.8592 21.9634L9.53971 18.7238C7.79618 17.4161 6.24736 15.8673 4.93971 14.1238L1.70007 9.80427C-0.0914731 7.41554 0.146078 4.07298 2.25743 1.96162Z" stroke="#F3F3F3"/>
</svg>
