<svg width="694" height="234" viewBox="0 0 694 234" fill="none" xmlns="http://www.w3.org/2000/svg">
<rect x="8" y="7" width="686" height="220" rx="50" fill="#46707E" fill-opacity="0.62"/>
<path d="M133.905 107.456C134.289 108.053 134.459 108.693 134.417 109.376C134.417 110.357 134.246 111.211 133.905 111.936C133.819 112.149 133.691 112.427 133.521 112.768C133.393 113.109 133.243 113.472 133.073 113.856C132.945 114.24 132.795 114.603 132.625 114.944C132.454 115.285 132.326 115.541 132.241 115.712L132.113 116.032C131.515 117.355 130.939 118.635 130.385 119.872C129.83 121.109 129.211 122.432 128.529 123.84C127.846 125.205 127.185 126.549 126.545 127.872C125.947 129.152 125.35 130.411 124.753 131.648C124.582 131.989 124.433 132.331 124.305 132.672C124.177 132.971 124.006 133.291 123.793 133.632L120.721 140.224C120.166 141.333 119.633 142.421 119.121 143.488C118.651 144.555 118.118 145.621 117.521 146.688C117.393 146.901 117.265 147.093 117.137 147.264C117.051 147.477 116.966 147.691 116.881 147.904C116.582 148.416 116.134 148.907 115.537 149.376C114.982 149.888 114.385 150.165 113.745 150.208C112.593 150.293 111.59 149.952 110.737 149.184C110.225 148.885 109.819 148.459 109.521 147.904C109.35 147.52 109.265 147.029 109.265 146.432C109.307 146.176 109.329 145.92 109.329 145.664C109.371 145.451 109.414 145.237 109.457 145.024C109.542 144.811 109.606 144.597 109.649 144.384C109.691 144.171 109.755 144 109.841 143.872C109.969 143.531 110.075 143.36 110.161 143.36L114.833 133.248C114.619 132.779 114.406 132.309 114.193 131.84C113.979 131.328 113.787 130.88 113.617 130.496C113.062 129.173 112.465 127.787 111.825 126.336C111.227 124.843 110.609 123.371 109.969 121.92C109.329 120.427 108.667 118.976 107.985 117.568C107.302 116.16 106.619 114.816 105.937 113.536C105.681 113.109 105.446 112.661 105.233 112.192C105.019 111.68 104.849 111.189 104.721 110.72C104.593 110.208 104.55 109.696 104.593 109.184C104.635 108.672 104.827 108.16 105.169 107.648C105.51 107.008 105.958 106.56 106.513 106.304C107.067 106.005 107.643 105.877 108.241 105.92C108.881 105.92 109.478 106.048 110.033 106.304C110.587 106.56 111.035 106.901 111.377 107.328C112.102 108.096 112.678 108.949 113.105 109.888C113.531 110.827 113.937 111.787 114.321 112.768C115.131 114.475 115.963 116.267 116.817 118.144C117.67 120.021 118.523 121.856 119.377 123.648L122.705 116.608C123.046 115.925 123.345 115.264 123.601 114.624C123.899 113.984 124.198 113.365 124.497 112.768C124.838 112.043 125.158 111.296 125.457 110.528C125.798 109.76 126.182 109.056 126.609 108.416C126.694 108.245 126.779 108.096 126.865 107.968C126.95 107.84 127.035 107.691 127.121 107.52C127.505 107.008 127.846 106.603 128.145 106.304C128.358 106.133 128.529 106.005 128.657 105.92C128.827 105.792 129.019 105.707 129.233 105.664C129.531 105.579 129.809 105.536 130.065 105.536C130.363 105.493 130.641 105.493 130.897 105.536C131.323 105.664 131.835 105.856 132.433 106.112C133.073 106.368 133.563 106.816 133.905 107.456ZM146.472 107.072C147.88 106.389 149.352 105.899 150.888 105.6C152.424 105.301 153.939 105.237 155.432 105.408C156.968 105.579 158.44 105.984 159.848 106.624C161.299 107.264 162.622 108.16 163.816 109.312C164.798 110.293 165.651 111.488 166.376 112.896C167.102 114.261 167.635 115.605 167.976 116.928C168.702 119.275 168.808 121.643 168.296 124.032C167.784 126.421 166.91 128.64 165.672 130.688C165.075 131.627 164.328 132.48 163.432 133.248C162.579 133.973 161.662 134.571 160.68 135.04C159.4 135.637 158.014 136.043 156.52 136.256C155.027 136.512 153.576 136.576 152.168 136.448C149.608 136.32 147.347 135.68 145.384 134.528C143.464 133.376 141.907 131.904 140.712 130.112C139.56 128.32 138.792 126.293 138.408 124.032C138.067 121.728 138.216 119.381 138.856 116.992C139.539 114.432 140.52 112.363 141.8 110.784C143.123 109.163 144.68 107.925 146.472 107.072ZM148.392 115.648C147.752 116.245 147.262 116.992 146.92 117.888C146.579 118.784 146.366 119.723 146.28 120.704C146.195 121.643 146.259 122.603 146.472 123.584C146.728 124.523 147.112 125.376 147.624 126.144C148.051 126.784 148.819 127.317 149.928 127.744C151.038 128.171 152.19 128.427 153.384 128.512C154.75 128.597 155.944 128.235 156.968 127.424C157.992 126.571 158.76 125.525 159.272 124.288C159.827 123.051 160.083 121.707 160.04 120.256C159.998 118.805 159.614 117.483 158.888 116.288C158.376 115.435 157.651 114.816 156.712 114.432C155.816 114.005 154.856 113.792 153.832 113.792C152.851 113.749 151.87 113.899 150.888 114.24C149.907 114.539 149.075 115.008 148.392 115.648ZM200.02 120.768C199.935 122.176 199.85 123.605 199.764 125.056C199.679 126.464 199.444 127.829 199.06 129.152C198.719 130.475 198.164 131.669 197.396 132.736C196.671 133.803 195.626 134.656 194.26 135.296C193.066 135.893 191.786 136.299 190.42 136.512C189.055 136.768 187.69 136.875 186.324 136.832C184.959 136.789 183.636 136.576 182.356 136.192C181.076 135.851 179.924 135.36 178.9 134.72C177.876 134.08 177.044 133.248 176.404 132.224C175.764 131.2 175.252 130.091 174.868 128.896C174.527 127.701 174.292 126.464 174.164 125.184C174.036 123.904 173.951 122.709 173.908 121.6C173.738 118.656 173.738 115.755 173.908 112.896C173.908 112.341 173.908 111.723 173.908 111.04C173.908 110.315 173.951 109.611 174.036 108.928C174.164 108.245 174.356 107.627 174.612 107.072C174.868 106.475 175.295 106.027 175.892 105.728C177.172 105.045 178.346 105.003 179.412 105.6C180.522 106.197 181.183 107.435 181.396 109.312C181.524 110.293 181.567 111.381 181.524 112.576C181.524 113.771 181.567 114.859 181.652 115.84C181.695 117.291 181.738 118.869 181.78 120.576C181.823 122.24 182.058 123.733 182.484 125.056C182.954 126.379 183.7 127.381 184.724 128.064C185.791 128.704 187.37 128.725 189.46 128.128C190.442 127.829 191.082 127.083 191.38 125.888C191.722 124.693 191.892 122.923 191.892 120.576C191.892 119.552 191.871 118.421 191.828 117.184C191.786 115.947 191.764 114.731 191.764 113.536C191.764 112.299 191.786 111.168 191.828 110.144C191.914 109.077 192.042 108.267 192.212 107.712C192.426 106.944 192.874 106.368 193.556 105.984C194.239 105.6 194.964 105.408 195.732 105.408C196.5 105.365 197.226 105.515 197.908 105.856C198.591 106.197 199.06 106.752 199.316 107.52C199.572 108.203 199.743 109.077 199.828 110.144C199.956 111.168 200.042 112.299 200.084 113.536C200.127 114.731 200.127 115.968 200.084 117.248C200.084 118.485 200.063 119.659 200.02 120.768ZM205.343 113.344C205.343 112.832 205.343 112.256 205.343 111.616C205.343 110.933 205.364 110.251 205.407 109.568C205.449 108.843 205.513 108.16 205.599 107.52C205.727 106.837 205.897 106.24 206.111 105.728C206.452 104.96 206.985 104.448 207.711 104.192C208.436 103.893 209.225 103.765 210.079 103.808C210.975 103.808 211.679 103.957 212.191 104.256C212.703 104.555 213.087 104.96 213.343 105.472C213.599 105.941 213.748 106.496 213.791 107.136C213.876 107.733 213.919 108.373 213.919 109.056C214.303 108.373 214.815 107.819 215.455 107.392C216.137 106.965 216.82 106.624 217.503 106.368C218.185 106.112 218.804 105.941 219.359 105.856C219.913 105.728 220.233 105.664 220.319 105.664C221.385 105.579 222.345 105.557 223.199 105.6C224.095 105.643 225.076 105.835 226.143 106.176C226.825 106.432 227.529 106.795 228.255 107.264C228.98 107.691 229.62 108.203 230.175 108.8C230.729 109.397 231.092 110.059 231.263 110.784C231.476 111.467 231.391 112.192 231.007 112.96C230.409 114.027 229.748 114.56 229.023 114.56C228.297 114.517 227.508 114.389 226.655 114.176C226.185 114.091 225.631 113.899 224.991 113.6C224.351 113.301 223.796 113.109 223.327 113.024C221.876 112.811 220.596 112.917 219.487 113.344C218.377 113.771 217.417 114.283 216.607 114.88C215.668 115.605 214.857 116.437 214.175 117.376V126.592C214.175 127.744 214.153 128.939 214.111 130.176C214.111 131.413 213.94 132.544 213.599 133.568C213.3 134.549 212.767 135.36 211.999 136C211.273 136.597 210.207 136.853 208.799 136.768C208.031 136.725 207.348 136.363 206.751 135.68C206.153 134.955 205.791 134.251 205.663 133.568C205.577 132.928 205.513 132.16 205.471 131.264C205.428 130.368 205.385 129.429 205.343 128.448C205.343 127.467 205.343 126.485 205.343 125.504C205.343 124.48 205.343 123.541 205.343 122.688V113.344ZM273.636 107.2C274.874 107.712 276.004 108.459 277.028 109.44C278.052 110.379 278.927 111.467 279.652 112.704C280.42 113.941 280.996 115.285 281.38 116.736C281.807 118.144 282.02 119.573 282.02 121.024C282.063 123.2 281.551 125.248 280.484 127.168C279.46 129.088 277.775 130.56 275.428 131.584C273.636 132.309 271.78 132.864 269.86 133.248C267.983 133.589 266.02 133.824 263.972 133.952V145.664C263.972 145.92 263.93 146.155 263.844 146.368C263.802 146.581 263.78 146.795 263.78 147.008C263.695 147.435 263.588 147.819 263.46 148.16C263.375 148.501 263.247 148.864 263.076 149.248C262.906 149.504 262.735 149.739 262.564 149.952C262.394 150.165 262.202 150.379 261.988 150.592C260.964 151.104 259.898 151.211 258.788 150.912C258.106 150.869 257.551 150.656 257.124 150.272C256.74 149.888 256.463 149.483 256.292 149.056C256.122 148.629 255.972 148.139 255.844 147.584C255.802 147.371 255.759 147.157 255.716 146.944C255.716 146.773 255.716 146.581 255.716 146.368V110.72C255.716 110.464 255.716 110.208 255.716 109.952C255.759 109.653 255.802 109.355 255.844 109.056C255.887 108.544 256.015 108.032 256.228 107.52C256.612 106.453 257.402 105.728 258.596 105.344C259.791 104.96 261.135 104.789 262.628 104.832C263.652 104.875 264.698 104.981 265.764 105.152C266.874 105.323 267.919 105.536 268.9 105.792C269.924 106.005 270.842 106.24 271.652 106.496C272.463 106.752 273.124 106.987 273.636 107.2ZM273.764 121.024C273.935 119.829 273.786 118.827 273.316 118.016C272.89 117.163 272.271 116.48 271.46 115.968C270.65 115.413 269.711 114.987 268.644 114.688C267.62 114.389 266.596 114.176 265.572 114.048C265.444 114.005 265.231 113.984 264.932 113.984C264.676 113.984 264.378 113.984 264.036 113.984C264.036 115.349 264.036 116.672 264.036 117.952C264.079 119.189 264.079 120.533 264.036 121.984V126.272C265.018 126.229 266.042 126.123 267.108 125.952C268.218 125.781 269.242 125.504 270.18 125.12C271.119 124.736 271.908 124.224 272.548 123.584C273.231 122.944 273.636 122.091 273.764 121.024ZM309.36 127.232C309.872 127.104 310.384 127.019 310.896 126.976C311.451 126.933 311.942 126.997 312.368 127.168C312.838 127.339 313.222 127.637 313.52 128.064C313.819 128.448 313.968 129.003 313.968 129.728C313.968 130.24 313.84 130.731 313.584 131.2C313.328 131.669 313.008 132.096 312.624 132.48C312.24 132.864 311.814 133.205 311.344 133.504C310.875 133.76 310.427 133.973 310 134.144C308.763 134.699 307.334 135.125 305.712 135.424C304.134 135.723 302.491 135.829 300.784 135.744C298.48 135.659 296.262 135.211 294.128 134.4C292.038 133.547 290.395 132.16 289.2 130.24C288.091 128.363 287.43 126.272 287.216 123.968C287.003 121.664 287.11 119.488 287.536 117.44C288.006 114.965 288.795 112.96 289.904 111.424C291.056 109.845 292.422 108.587 294 107.648C295.92 106.539 298.075 105.963 300.464 105.92C302.854 105.877 305.136 106.347 307.312 107.328C308.763 107.968 310.064 108.843 311.216 109.952C312.368 111.019 313.243 112.32 313.84 113.856C314.011 114.24 314.139 114.709 314.224 115.264C314.352 115.819 314.438 116.416 314.48 117.056C314.523 117.653 314.523 118.251 314.48 118.848C314.438 119.445 314.331 119.979 314.16 120.448C313.904 121.216 313.584 121.813 313.2 122.24C312.816 122.667 312.326 122.987 311.728 123.2C311.131 123.413 310.406 123.563 309.552 123.648C308.742 123.691 307.76 123.733 306.608 123.776C305.584 123.819 304.624 123.84 303.728 123.84C302.832 123.84 301.915 123.84 300.976 123.84C300.038 123.797 299.056 123.776 298.032 123.776C297.051 123.733 295.942 123.691 294.704 123.648C294.576 124.501 294.683 125.248 295.024 125.888C295.408 126.485 295.92 126.997 296.56 127.424C297.2 127.808 297.926 128.107 298.736 128.32C299.547 128.533 300.336 128.661 301.104 128.704C302.555 128.789 303.942 128.683 305.264 128.384C306.587 128.043 307.952 127.659 309.36 127.232ZM306.608 114.816C305.798 113.877 304.944 113.195 304.048 112.768C303.366 112.469 302.64 112.341 301.872 112.384C301.147 112.384 300.443 112.491 299.76 112.704C298.523 113.003 297.478 113.643 296.624 114.624C296.539 114.709 296.39 114.923 296.176 115.264C295.963 115.563 295.75 115.883 295.536 116.224C295.366 116.565 295.238 116.885 295.152 117.184C295.067 117.483 295.11 117.632 295.28 117.632H307.824C307.782 117.035 307.675 116.544 307.504 116.16C307.334 115.733 307.035 115.285 306.608 114.816ZM319.718 113.344C319.718 112.832 319.718 112.256 319.718 111.616C319.718 110.933 319.739 110.251 319.782 109.568C319.824 108.843 319.888 108.16 319.974 107.52C320.102 106.837 320.272 106.24 320.486 105.728C320.827 104.96 321.36 104.448 322.086 104.192C322.811 103.893 323.6 103.765 324.454 103.808C325.35 103.808 326.054 103.957 326.566 104.256C327.078 104.555 327.462 104.96 327.718 105.472C327.974 105.941 328.123 106.496 328.166 107.136C328.251 107.733 328.294 108.373 328.294 109.056C328.678 108.373 329.19 107.819 329.83 107.392C330.512 106.965 331.195 106.624 331.878 106.368C332.56 106.112 333.179 105.941 333.734 105.856C334.288 105.728 334.608 105.664 334.694 105.664C335.76 105.579 336.72 105.557 337.574 105.6C338.47 105.643 339.451 105.835 340.518 106.176C341.2 106.432 341.904 106.795 342.63 107.264C343.355 107.691 343.995 108.203 344.55 108.8C345.104 109.397 345.467 110.059 345.638 110.784C345.851 111.467 345.766 112.192 345.382 112.96C344.784 114.027 344.123 114.56 343.398 114.56C342.672 114.517 341.883 114.389 341.03 114.176C340.56 114.091 340.006 113.899 339.366 113.6C338.726 113.301 338.171 113.109 337.702 113.024C336.251 112.811 334.971 112.917 333.862 113.344C332.752 113.771 331.792 114.283 330.982 114.88C330.043 115.605 329.232 116.437 328.55 117.376V126.592C328.55 127.744 328.528 128.939 328.486 130.176C328.486 131.413 328.315 132.544 327.974 133.568C327.675 134.549 327.142 135.36 326.374 136C325.648 136.597 324.582 136.853 323.174 136.768C322.406 136.725 321.723 136.363 321.126 135.68C320.528 134.955 320.166 134.251 320.038 133.568C319.952 132.928 319.888 132.16 319.846 131.264C319.803 130.368 319.76 129.429 319.718 128.448C319.718 127.467 319.718 126.485 319.718 125.504C319.718 124.48 319.718 123.541 319.718 122.688V113.344ZM369.272 108.928C369.997 109.141 370.466 109.547 370.68 110.144C370.893 110.699 370.957 111.296 370.872 111.936C370.616 113.259 369.89 114.069 368.696 114.368C368.013 114.539 367.309 114.624 366.584 114.624C365.901 114.624 365.197 114.645 364.472 114.688V129.472C364.472 130.496 364.408 131.541 364.28 132.608C364.28 132.992 364.173 133.397 363.96 133.824C363.874 134.037 363.81 134.165 363.768 134.208C363.768 134.293 363.725 134.421 363.64 134.592C363.384 135.061 363.042 135.445 362.616 135.744C361.677 136.256 360.674 136.384 359.608 136.128C358.968 136 358.477 135.787 358.136 135.488C357.752 135.189 357.474 134.827 357.304 134.4C357.218 134.187 357.154 133.973 357.112 133.76C357.069 133.547 357.005 133.333 356.92 133.12C356.877 132.907 356.834 132.715 356.792 132.544C356.792 132.331 356.792 132.16 356.792 132.032V128.32C356.792 126.101 356.792 123.797 356.792 121.408C356.834 119.019 356.856 116.715 356.856 114.496C355.874 114.453 354.85 114.432 353.784 114.432C352.76 114.389 352.013 114.133 351.544 113.664C351.288 113.408 351.117 113.088 351.032 112.704C350.946 112.277 350.904 111.851 350.904 111.424C350.946 110.997 351.032 110.613 351.16 110.272C351.288 109.888 351.458 109.611 351.672 109.44C352.226 108.928 352.717 108.651 353.144 108.608C353.613 108.523 354.189 108.459 354.872 108.416C354.957 108.416 355.234 108.416 355.704 108.416C356.216 108.373 356.536 108.352 356.664 108.352C356.706 106.901 356.749 105.451 356.792 104C356.834 102.549 356.962 101.227 357.176 100.032C357.432 98.7947 357.794 97.728 358.264 96.832C358.776 95.8933 359.544 95.1893 360.568 94.72C361.805 94.1653 363.213 93.824 364.792 93.696C366.37 93.568 367.8 93.76 369.08 94.272C369.677 94.4853 370.253 94.912 370.808 95.552C371.405 96.192 371.682 96.896 371.64 97.664C371.597 98.432 371.448 99.136 371.192 99.776C370.936 100.416 370.381 100.843 369.528 101.056C369.144 101.141 368.738 101.184 368.312 101.184C367.928 101.141 367.522 101.12 367.096 101.12C366.669 101.12 366.264 101.184 365.88 101.312C365.538 101.397 365.24 101.589 364.984 101.888C364.77 102.144 364.621 102.485 364.536 102.912C364.493 103.339 364.45 103.787 364.408 104.256C364.365 104.725 364.344 105.195 364.344 105.664C364.386 106.091 364.408 106.453 364.408 106.752V108.352C365.389 108.437 366.285 108.501 367.096 108.544C367.949 108.587 368.674 108.715 369.272 108.928ZM396.235 127.232C396.747 127.104 397.259 127.019 397.771 126.976C398.326 126.933 398.817 126.997 399.243 127.168C399.713 127.339 400.097 127.637 400.395 128.064C400.694 128.448 400.843 129.003 400.843 129.728C400.843 130.24 400.715 130.731 400.459 131.2C400.203 131.669 399.883 132.096 399.499 132.48C399.115 132.864 398.689 133.205 398.219 133.504C397.75 133.76 397.302 133.973 396.875 134.144C395.638 134.699 394.209 135.125 392.587 135.424C391.009 135.723 389.366 135.829 387.659 135.744C385.355 135.659 383.137 135.211 381.003 134.4C378.913 133.547 377.27 132.16 376.075 130.24C374.966 128.363 374.305 126.272 374.091 123.968C373.878 121.664 373.985 119.488 374.411 117.44C374.881 114.965 375.67 112.96 376.779 111.424C377.931 109.845 379.297 108.587 380.875 107.648C382.795 106.539 384.95 105.963 387.339 105.92C389.729 105.877 392.011 106.347 394.187 107.328C395.638 107.968 396.939 108.843 398.091 109.952C399.243 111.019 400.118 112.32 400.715 113.856C400.886 114.24 401.014 114.709 401.099 115.264C401.227 115.819 401.313 116.416 401.355 117.056C401.398 117.653 401.398 118.251 401.355 118.848C401.313 119.445 401.206 119.979 401.035 120.448C400.779 121.216 400.459 121.813 400.075 122.24C399.691 122.667 399.201 122.987 398.603 123.2C398.006 123.413 397.281 123.563 396.427 123.648C395.617 123.691 394.635 123.733 393.483 123.776C392.459 123.819 391.499 123.84 390.603 123.84C389.707 123.84 388.79 123.84 387.851 123.84C386.913 123.797 385.931 123.776 384.907 123.776C383.926 123.733 382.817 123.691 381.579 123.648C381.451 124.501 381.558 125.248 381.899 125.888C382.283 126.485 382.795 126.997 383.435 127.424C384.075 127.808 384.801 128.107 385.611 128.32C386.422 128.533 387.211 128.661 387.979 128.704C389.43 128.789 390.817 128.683 392.139 128.384C393.462 128.043 394.827 127.659 396.235 127.232ZM393.483 114.816C392.673 113.877 391.819 113.195 390.923 112.768C390.241 112.469 389.515 112.341 388.747 112.384C388.022 112.384 387.318 112.491 386.635 112.704C385.398 113.003 384.353 113.643 383.499 114.624C383.414 114.709 383.265 114.923 383.051 115.264C382.838 115.563 382.625 115.883 382.411 116.224C382.241 116.565 382.113 116.885 382.027 117.184C381.942 117.483 381.985 117.632 382.155 117.632H394.699C394.657 117.035 394.55 116.544 394.379 116.16C394.209 115.733 393.91 115.285 393.483 114.816ZM430.337 111.36C430.678 111.957 430.849 112.597 430.849 113.28C430.891 113.963 430.742 114.603 430.401 115.2C430.017 115.968 429.462 116.501 428.737 116.8C428.054 117.056 427.286 117.077 426.433 116.864C426.049 116.779 425.707 116.629 425.409 116.416C425.11 116.203 424.79 115.989 424.449 115.776C424.15 115.52 423.787 115.285 423.361 115.072C422.977 114.859 422.465 114.709 421.825 114.624C421.185 114.539 420.481 114.539 419.713 114.624C418.987 114.709 418.326 114.88 417.729 115.136C416.79 115.605 416.043 116.331 415.489 117.312C414.934 118.251 414.571 119.275 414.401 120.384C414.23 121.451 414.251 122.539 414.465 123.648C414.721 124.757 415.19 125.696 415.873 126.464C416.385 127.061 417.046 127.552 417.857 127.936C418.71 128.32 419.521 128.555 420.289 128.64C421.014 128.725 421.739 128.725 422.465 128.64C423.19 128.512 423.894 128.341 424.577 128.128C425.089 127.915 425.665 127.637 426.305 127.296C426.945 126.912 427.563 126.677 428.161 126.592C428.929 126.592 429.526 126.805 429.953 127.232C430.379 127.616 430.678 128.107 430.849 128.704C431.019 129.259 431.041 129.856 430.913 130.496C430.827 131.136 430.593 131.691 430.209 132.16C429.697 132.8 428.971 133.419 428.033 134.016C427.094 134.571 426.198 134.976 425.345 135.232C424.321 135.573 423.169 135.765 421.889 135.808C420.651 135.851 419.478 135.808 418.369 135.68C417.857 135.595 417.323 135.488 416.769 135.36C416.214 135.232 415.681 135.083 415.169 134.912C413.291 134.229 411.713 133.269 410.433 132.032C409.195 130.752 408.235 129.323 407.553 127.744C406.913 126.165 406.55 124.48 406.465 122.688C406.379 120.896 406.593 119.125 407.105 117.376C407.574 115.712 408.15 114.304 408.833 113.152C409.558 112 410.39 111.061 411.329 110.336C412.31 109.568 413.398 108.971 414.593 108.544C415.787 108.075 417.11 107.669 418.561 107.328C420.054 107.029 421.633 107.029 423.297 107.328C424.961 107.627 426.454 108.181 427.777 108.992C428.801 109.547 429.654 110.336 430.337 111.36ZM461.482 107.776C461.823 108.587 461.844 109.483 461.546 110.464C461.29 111.445 460.799 112.085 460.074 112.384C459.69 112.555 459.178 112.704 458.538 112.832C457.898 112.917 457.194 113.003 456.426 113.088C455.7 113.173 454.975 113.237 454.25 113.28C453.524 113.323 452.906 113.344 452.394 113.344C452.436 114.624 452.479 115.947 452.522 117.312C452.564 118.635 452.607 119.936 452.65 121.216C452.692 122.496 452.714 123.733 452.714 124.928C452.714 126.08 452.692 127.125 452.65 128.064C452.65 128.704 452.65 129.451 452.65 130.304C452.65 131.115 452.586 131.904 452.458 132.672C452.372 133.44 452.223 134.123 452.01 134.72C451.796 135.275 451.476 135.637 451.05 135.808C449.727 136.363 448.511 136.512 447.402 136.256C446.335 136.043 445.567 135.595 445.098 134.912C444.756 134.357 444.5 133.717 444.33 132.992C444.159 132.224 444.031 131.456 443.946 130.688C443.903 129.877 443.882 129.109 443.882 128.384C443.924 127.616 443.946 126.955 443.946 126.4C443.988 124.608 444.01 122.581 444.01 120.32C444.052 118.016 444.074 115.712 444.074 113.408H443.114C442.602 113.408 441.94 113.408 441.13 113.408C440.362 113.365 439.572 113.301 438.762 113.216C437.994 113.088 437.268 112.939 436.586 112.768C435.903 112.555 435.412 112.256 435.114 111.872C434.644 111.317 434.346 110.72 434.218 110.08C434.132 109.44 434.175 108.843 434.346 108.288C434.559 107.691 434.879 107.179 435.306 106.752C435.732 106.283 436.223 105.984 436.778 105.856C437.546 105.643 438.634 105.536 440.042 105.536C441.45 105.493 442.772 105.493 444.01 105.536C443.967 105.109 443.946 104.704 443.946 104.32C443.946 103.893 443.924 103.488 443.882 103.104C443.839 102.592 443.818 101.952 443.818 101.184C443.818 100.373 443.86 99.584 443.946 98.816C444.074 98.0053 444.266 97.2587 444.522 96.576C444.778 95.8507 445.14 95.296 445.61 94.912C446.25 94.4 446.89 94.1227 447.53 94.08C448.212 93.9947 448.831 94.08 449.386 94.336C449.983 94.592 450.474 94.976 450.858 95.488C451.284 95.9573 451.583 96.4907 451.754 97.088C451.882 97.6 451.988 98.2187 452.074 98.944C452.159 99.6267 452.202 100.352 452.202 101.12C452.244 101.888 452.266 102.656 452.266 103.424C452.266 104.192 452.266 104.896 452.266 105.536H452.906C453.546 105.536 454.292 105.515 455.146 105.472C455.999 105.429 456.831 105.451 457.642 105.536C458.495 105.621 459.263 105.835 459.946 106.176C460.628 106.475 461.14 107.008 461.482 107.776ZM494.603 130.88C494.561 131.093 494.518 131.307 494.475 131.52C494.475 131.691 494.475 131.883 494.475 132.096L494.091 133.44C494.006 133.611 493.942 133.717 493.899 133.76L493.707 134.144C493.494 134.613 493.11 134.997 492.555 135.296C491.531 135.808 490.443 135.936 489.291 135.68C488.566 135.595 487.99 135.381 487.563 135.04C487.137 134.741 486.838 134.379 486.667 133.952C486.497 133.525 486.369 133.099 486.283 132.672C486.155 132.245 486.091 131.861 486.091 131.52V95.68C486.091 95.3813 486.091 95.1253 486.091 94.912C486.134 94.656 486.177 94.4213 486.219 94.208C486.262 93.9093 486.305 93.6533 486.347 93.44C486.433 93.2267 486.518 92.992 486.603 92.736C486.731 92.3093 486.966 91.968 487.307 91.712C487.819 91.328 488.31 91.1147 488.779 91.072C489.078 90.9867 489.355 90.944 489.611 90.944C489.867 90.9013 490.166 90.88 490.507 90.88C491.105 90.88 491.787 91.0507 492.555 91.392C493.153 91.7333 493.579 92.2027 493.835 92.8C494.262 93.6533 494.475 94.4427 494.475 95.168C494.518 95.5947 494.539 96.2347 494.539 97.088C494.582 97.9413 494.603 98.5813 494.603 99.008V99.264C494.689 100.629 494.731 101.952 494.731 103.232C494.731 104.469 494.71 105.835 494.667 107.328C494.667 108.779 494.646 110.187 494.603 111.552C494.603 112.875 494.603 114.197 494.603 115.52V128.96C494.603 129.131 494.603 129.301 494.603 129.472C494.646 129.6 494.667 129.749 494.667 129.92C494.667 130.347 494.646 130.667 494.603 130.88ZM508.097 107.072C509.505 106.389 510.977 105.899 512.513 105.6C514.049 105.301 515.564 105.237 517.057 105.408C518.593 105.579 520.065 105.984 521.473 106.624C522.924 107.264 524.247 108.16 525.441 109.312C526.423 110.293 527.276 111.488 528.001 112.896C528.727 114.261 529.26 115.605 529.601 116.928C530.327 119.275 530.433 121.643 529.921 124.032C529.409 126.421 528.535 128.64 527.297 130.688C526.7 131.627 525.953 132.48 525.057 133.248C524.204 133.973 523.287 134.571 522.305 135.04C521.025 135.637 519.639 136.043 518.145 136.256C516.652 136.512 515.201 136.576 513.793 136.448C511.233 136.32 508.972 135.68 507.009 134.528C505.089 133.376 503.532 131.904 502.337 130.112C501.185 128.32 500.417 126.293 500.033 124.032C499.692 121.728 499.841 119.381 500.481 116.992C501.164 114.432 502.145 112.363 503.425 110.784C504.748 109.163 506.305 107.925 508.097 107.072ZM510.017 115.648C509.377 116.245 508.887 116.992 508.545 117.888C508.204 118.784 507.991 119.723 507.905 120.704C507.82 121.643 507.884 122.603 508.097 123.584C508.353 124.523 508.737 125.376 509.249 126.144C509.676 126.784 510.444 127.317 511.553 127.744C512.663 128.171 513.815 128.427 515.009 128.512C516.375 128.597 517.569 128.235 518.593 127.424C519.617 126.571 520.385 125.525 520.897 124.288C521.452 123.051 521.708 121.707 521.665 120.256C521.623 118.805 521.239 117.483 520.513 116.288C520.001 115.435 519.276 114.816 518.337 114.432C517.441 114.005 516.481 113.792 515.457 113.792C514.476 113.749 513.495 113.899 512.513 114.24C511.532 114.539 510.7 115.008 510.017 115.648ZM561.901 123.904C561.901 125.269 561.859 126.741 561.773 128.32C561.731 129.899 561.667 131.371 561.581 132.736C561.581 134.016 561.517 135.296 561.389 136.576C561.304 137.685 561.133 138.88 560.877 140.16C560.621 141.483 560.259 142.699 559.789 143.808C559.192 145.259 558.381 146.496 557.357 147.52C556.333 148.587 555.011 149.355 553.389 149.824C552.024 150.165 550.744 150.379 549.549 150.464C548.355 150.592 547.075 150.571 545.709 150.4C544.813 150.272 543.853 150.016 542.829 149.632C541.805 149.291 540.845 148.843 539.949 148.288C539.053 147.733 538.264 147.072 537.581 146.304C536.899 145.579 536.429 144.747 536.173 143.808C535.875 142.656 535.853 141.653 536.109 140.8C536.408 139.947 536.856 139.328 537.453 138.944C538.051 138.56 538.755 138.496 539.565 138.752C540.376 139.008 541.144 139.669 541.869 140.736C542.381 141.504 543.128 142.123 544.109 142.592C545.091 143.061 546.136 143.339 547.245 143.424C548.355 143.509 549.421 143.36 550.445 142.976C551.512 142.635 552.344 142.016 552.941 141.12C553.368 140.48 553.667 139.563 553.837 138.368C554.051 137.173 554.179 136 554.221 134.848C552.045 135.744 549.805 136.085 547.501 135.872C545.24 135.616 543.171 134.912 541.293 133.76C539.459 132.565 537.965 130.987 536.813 129.024C535.704 127.019 535.235 124.757 535.405 122.24C535.533 120.064 535.981 118.016 536.749 116.096C537.56 114.176 538.883 112.576 540.717 111.296C542.211 110.272 543.896 109.611 545.773 109.312C547.651 108.971 549.464 108.8 551.213 108.8C552.237 108.8 553.24 108.8 554.221 108.8C555.245 108.8 556.184 108.928 557.037 109.184C557.891 109.44 558.659 109.867 559.341 110.464C560.024 111.061 560.536 111.936 560.877 113.088C561.432 114.88 561.731 116.651 561.773 118.4C561.859 120.149 561.901 121.984 561.901 123.904ZM549.549 129.216C549.976 129.216 550.381 129.173 550.765 129.088C551.192 129.003 551.597 128.896 551.981 128.768C552.707 128.512 553.24 128.171 553.581 127.744C553.965 127.317 554.221 126.848 554.349 126.336C554.477 125.781 554.52 125.184 554.477 124.544C554.477 123.904 554.477 123.243 554.477 122.56C554.477 122.005 554.456 121.387 554.413 120.704C554.413 120.021 554.371 119.381 554.285 118.784C554.2 118.144 554.072 117.589 553.901 117.12C553.731 116.651 553.475 116.352 553.133 116.224C552.536 116.053 551.853 115.947 551.085 115.904C550.317 115.819 549.549 115.819 548.781 115.904C548.013 115.947 547.267 116.096 546.541 116.352C545.859 116.565 545.283 116.864 544.813 117.248C544.173 117.803 543.683 118.485 543.341 119.296C543 120.107 542.787 120.96 542.701 121.856C542.659 122.752 542.723 123.627 542.893 124.48C543.107 125.333 543.469 126.101 543.981 126.784C544.579 127.637 545.389 128.256 546.413 128.64C547.437 129.024 548.483 129.216 549.549 129.216ZM575.347 107.072C576.755 106.389 578.227 105.899 579.763 105.6C581.299 105.301 582.814 105.237 584.307 105.408C585.843 105.579 587.315 105.984 588.723 106.624C590.174 107.264 591.497 108.16 592.691 109.312C593.673 110.293 594.526 111.488 595.251 112.896C595.977 114.261 596.51 115.605 596.851 116.928C597.577 119.275 597.683 121.643 597.171 124.032C596.659 126.421 595.785 128.64 594.547 130.688C593.95 131.627 593.203 132.48 592.307 133.248C591.454 133.973 590.537 134.571 589.555 135.04C588.275 135.637 586.889 136.043 585.395 136.256C583.902 136.512 582.451 136.576 581.043 136.448C578.483 136.32 576.222 135.68 574.259 134.528C572.339 133.376 570.782 131.904 569.587 130.112C568.435 128.32 567.667 126.293 567.283 124.032C566.942 121.728 567.091 119.381 567.731 116.992C568.414 114.432 569.395 112.363 570.675 110.784C571.998 109.163 573.555 107.925 575.347 107.072ZM577.267 115.648C576.627 116.245 576.137 116.992 575.795 117.888C575.454 118.784 575.241 119.723 575.155 120.704C575.07 121.643 575.134 122.603 575.347 123.584C575.603 124.523 575.987 125.376 576.499 126.144C576.926 126.784 577.694 127.317 578.803 127.744C579.913 128.171 581.065 128.427 582.259 128.512C583.625 128.597 584.819 128.235 585.843 127.424C586.867 126.571 587.635 125.525 588.147 124.288C588.702 123.051 588.958 121.707 588.915 120.256C588.873 118.805 588.489 117.483 587.763 116.288C587.251 115.435 586.526 114.816 585.587 114.432C584.691 114.005 583.731 113.792 582.707 113.792C581.726 113.749 580.745 113.899 579.763 114.24C578.782 114.539 577.95 115.008 577.267 115.648Z" fill="white"/>
</svg>
